<?xml version="1.0" encoding="utf-8" standalone="yes"?>
<!DOCTYPE svg PUBLIC "-//W3C//DTD SVG 1.1//EN" "http://www.w3.org/Graphics/SVG/1.1/DTD/svg11.dtd">
<svg style="fill:none;stroke:none;fill-rule:evenodd;clip-rule:evenodd;stroke-linecap:round;stroke-linejoin:round;stroke-miterlimit:1.5;" version="1.1" xmlns="http://www.w3.org/2000/svg" xmlns:xlink="http://www.w3.org/1999/xlink" width="972" height="720" viewBox="0 0 972 720"><style class="text-font-style fontImports" data-font-family="Roboto">@import url(https://fonts.googleapis.com/css2?family=Roboto:wght@400;700&amp;amp;display=block);</style><g id="items" style="isolation: isolate"><g id="blend" style="mix-blend-mode: normal"><g id="g-root-cp_0b_g-0b_1lz98xx1cwzcap-fill" data-item-order="-571021" transform="translate(158, 314)"></g><g id="g-root-cp_0b_g-0b_1lz98xx1cwzcap-stroke" data-item-order="-571021" transform="translate(158, 314)"><g id="cp_0b_g-0b_1lz98xx1cwzcap-stroke" fill="none" stroke-linecap="round" stroke-linejoin="round" stroke-miterlimit="4" stroke="#484848" stroke-width="2" stroke-dasharray="5.0, 7.0" stroke-opacity="1"><g><path d="M 646 10L 10 10"></path></g></g></g><g id="g-root-cp_0a_g-0a_1d3m8p11cwzd3e-fill" data-item-order="-571018" transform="translate(122, 182)"><g id="cp_0a_g-0a_1d3m8p11cwzd3e-fill-merged" stroke="none" fill="#a3a3a3" fill-opacity="1"><g><path d="M274 130L334 34L344 42.5L364 10L418 82L430 70L466 130 H274 M312 118L331 89L354 94L339 76L365 34L418 106L428 94L443 118 H312 M10 106 H46 V130 H10L16.5 118L10 106 M718 106 H682 V130 H718L711.5 118L718 106"></path></g></g></g><g id="g-root-cp_0a_g-0a_1d3m8p11cwzd3e-stroke" data-item-order="-571018" transform="translate(122, 182)"><g id="cp_0a_g-0a_1d3m8p11cwzd3e-stroke" fill="none" stroke-linecap="round" stroke-linejoin="round" stroke-miterlimit="4" stroke="#ffffff" stroke-width="2" stroke-opacity="1"><g><path d="M 274 130L 334 34L 344 42.5L 364 10L 418 82L 430 70L 466 130L 274 130ZM 312 118L 331 89L 354 94L 339 76L 365 34L 418 106L 428 94L 443 118L 312 118ZM 46 106L 10 106L 16.5 118L 10 130L 46 130M 682 106L 718 106L 711.5 118L 718 130L 682 130"></path></g></g></g><g id="g-root-cp_0a_poles_zism111cx0q2z-fill" data-item-order="-571003" transform="translate(158, 278)"></g><g id="g-root-cp_0a_poles_zism111cx0q2z-stroke" data-item-order="-571003" transform="translate(158, 278)"><g id="cp_0a_poles_zism111cx0q2z-stroke" fill="none" stroke-linecap="round" stroke-linejoin="round" stroke-miterlimit="4" stroke="#484848" stroke-width="2" stroke-opacity="1"><g><path d="M 10 34L 10 10L 10 46M 646 34L 646 10L 646 46"></path></g></g></g><g id="g-root-cp_1_line_1_v2z3wl1cx0qv8-fill" data-item-order="-570981" transform="translate(290, 338)"></g><g id="g-root-cp_1_line_1_v2z3wl1cx0qv8-stroke" data-item-order="-570981" transform="translate(290, 338)"><g id="cp_1_line_1_v2z3wl1cx0qv8-stroke" fill="none" stroke-linecap="round" stroke-linejoin="round" stroke-miterlimit="4" stroke="#484848" stroke-width="2" stroke-opacity="1"><g><path d="M 10 10L 10 82"></path></g></g></g><g id="g-root-cp_1_g-1_m7c3np1cx0rnx-fill" data-item-order="-570972" transform="translate(386, 326)"><g id="cp_1_g-1_m7c3np1cx0rnx-fill-merged" stroke="none" fill="#4e88e7" fill-opacity="1"><g><path d="M22 82L10 10 H202L185 82 H22"></path></g></g></g><g id="g-root-cp_1_g-1_m7c3np1cx0rnx-stroke" data-item-order="-570972" transform="translate(386, 326)"><g id="cp_1_g-1_m7c3np1cx0rnx-stroke" fill="none" stroke-linecap="round" stroke-linejoin="round" stroke-miterlimit="4" stroke="#ffffff" stroke-width="2" stroke-opacity="1"><g><path d="M 22 82L 10 10L 202 10L 185 82L 22 82Z"></path></g></g></g><g id="g-root-cp_2_line_3_8wi2dh1cx0q32-fill" data-item-order="-570953" transform="translate(662, 410)"></g><g id="g-root-cp_2_line_3_8wi2dh1cx0q32-stroke" data-item-order="-570953" transform="translate(662, 410)"><g id="cp_2_line_3_8wi2dh1cx0q32-stroke" fill="none" stroke-linecap="round" stroke-linejoin="round" stroke-miterlimit="4" stroke="#484848" stroke-width="2" stroke-opacity="1"><g><path d="M 10 10L 10 82"></path></g></g></g><g id="g-root-cp_2_g-2_4gok911cx0qvb-fill" data-item-order="-570946" transform="translate(398, 398)"><g id="cp_2_g-2_4gok911cx0qvb-fill-merged" stroke="none" fill="#3cc583" fill-opacity="1"><g><path d="M16.543 57.014L10 10 H173L157.5 82L145.83 59.32L142 82 H34L30 50.2L16.543 57.014"></path></g></g></g><g id="g-root-cp_2_g-2_4gok911cx0qvb-stroke" data-item-order="-570946" transform="translate(398, 398)"><g id="cp_2_g-2_4gok911cx0qvb-stroke" fill="none" stroke-linecap="round" stroke-linejoin="round" stroke-miterlimit="4" stroke="#ffffff" stroke-width="2" stroke-opacity="1"><g><path d="M 16.5429 57.01384L 10 10L 173 10L 157.5 82L 145.830002 59.319523L 142 82L 34 82L 30 50.200001L 16.5429 57.01384Z"></path></g></g></g><g id="g-root-cp_3_line_5_1lr52th1cx0pvk-fill" data-item-order="-570927" transform="translate(290, 482)"></g><g id="g-root-cp_3_line_5_1lr52th1cx0pvk-stroke" data-item-order="-570927" transform="translate(290, 482)"><g id="cp_3_line_5_1lr52th1cx0pvk-stroke" fill="none" stroke-linecap="round" stroke-linejoin="round" stroke-miterlimit="4" stroke="#484848" stroke-width="2" stroke-opacity="1"><g><path d="M 10 10L 10 82"></path></g></g></g><g id="g-root-cp_3_g-3_1cvi2kl1cx0qo9-fill" data-item-order="-570920" transform="translate(422, 470)"><g id="cp_3_g-3_1cvi2kl1cx0qo9-fill-merged" stroke="none" fill="#969696" fill-opacity="1"><g><path d="M16.5 65.2L10 10 H117.999L112.025 46L106 82 H29.5L29 68.2L16.5 65.2"></path></g></g></g><g id="g-root-cp_3_g-3_1cvi2kl1cx0qo9-stroke" data-item-order="-570920" transform="translate(422, 470)"><g id="cp_3_g-3_1cvi2kl1cx0qo9-stroke" fill="none" stroke-linecap="round" stroke-linejoin="round" stroke-miterlimit="4" stroke="#ffffff" stroke-width="2" stroke-opacity="1"><g><path d="M 16.5 65.200001L 10 10L 117.999496 10L 112.025406 46L 106 82L 29.499603 82L 28.999603 68.200001L 16.5 65.200001Z"></path></g></g></g><g id="g-root-cp_4_line_7_18fokg51cx0rgi-fill" data-item-order="-570901" transform="translate(662, 554.0000610351562)"></g><g id="g-root-cp_4_line_7_18fokg51cx0rgi-stroke" data-item-order="-570901" transform="translate(662, 554.0000610351562)"><g id="cp_4_line_7_18fokg51cx0rgi-stroke" fill="none" stroke-linecap="round" stroke-linejoin="round" stroke-miterlimit="4" stroke="#484848" stroke-width="2" stroke-opacity="1"><g><path d="M 10 10L 10 82"></path></g></g></g><g id="g-root-cp_4_g-4_v4uj5x1cx0pvn-fill" data-item-order="-570894" transform="translate(441.5, 542)"><g id="cp_4_g-4_v4uj5x1cx0pvn-fill-merged" stroke="none" fill="#ba5de5" fill-opacity="1"><g><path d="M36.492 94L10 10 H86.5L78.165 52L57.924 38L36.492 94"></path></g></g></g><g id="g-root-cp_4_g-4_v4uj5x1cx0pvn-stroke" data-item-order="-570894" transform="translate(441.5, 542)"><g id="cp_4_g-4_v4uj5x1cx0pvn-stroke" fill="none" stroke-linecap="round" stroke-linejoin="round" stroke-miterlimit="4" stroke="#ffffff" stroke-width="2" stroke-opacity="1"><g><path d="M 36.491899 94L 10 10L 86.5 10L 78.165298 52L 57.923901 38L 36.491899 94Z"></path></g></g></g><g id="g-root-he_m97ix11cx0qod-fill" data-item-order="-570881" transform="translate(362, 368)"></g><g id="g-root-he_m97ix11cx0qod-stroke" data-item-order="-570881" transform="translate(362, 368)"><g id="he_m97ix11cx0qod-stroke" fill="none" stroke-linecap="round" stroke-linejoin="round" stroke-miterlimit="4" stroke="#484848" stroke-width="2" stroke-opacity="1"><g><path d="M 41 10L 10 10"></path></g></g></g><g id="g-root-he_hte0sl1cx0rgn-fill" data-item-order="-570879" transform="translate(551.5, 440)"></g><g id="g-root-he_hte0sl1cx0rgn-stroke" data-item-order="-570879" transform="translate(551.5, 440)"><g id="he_hte0sl1cx0rgn-stroke" fill="none" stroke-linecap="round" stroke-linejoin="round" stroke-miterlimit="4" stroke="#484848" stroke-width="2" stroke-opacity="1"><g><path d="M 10 10L 48.5 10"></path></g></g></g><g id="g-root-he_de6zr91cx0p35-fill" data-item-order="-570877" transform="translate(362, 512)"></g><g id="g-root-he_de6zr91cx0p35-stroke" data-item-order="-570877" transform="translate(362, 512)"><g id="he_de6zr91cx0p35-stroke" fill="none" stroke-linecap="round" stroke-linejoin="round" stroke-miterlimit="4" stroke="#484848" stroke-width="2" stroke-opacity="1"><g><path d="M 75 10L 10 10"></path></g></g></g><g id="g-root-he_de6zr91cx0p37-fill" data-item-order="-570875" transform="translate(509.5, 584)"></g><g id="g-root-he_de6zr91cx0p37-stroke" data-item-order="-570875" transform="translate(509.5, 584)"><g id="he_de6zr91cx0p37-stroke" fill="none" stroke-linecap="round" stroke-linejoin="round" stroke-miterlimit="4" stroke="#484848" stroke-width="2" stroke-opacity="1"><g><path d="M 10 10L 90.5 10"></path></g></g></g><g id="g-root-tx_webinter_13zv5hh1cwigw4-fill" data-item-order="0" transform="translate(674, 410)"><g id="tx_webinter_13zv5hh1cwigw4-fill-merged" stroke="none" fill="#3cc583" fill-opacity="1"><g><text style="font: bold 20px Roboto, sans-serif; white-space: pre;" transform="translate(10, 22)" font-weight="bold" font-size="20px" font-family="Roboto, sans-serif"><tspan x="2" y="12" dominant-baseline="ideographic">Web Interface</tspan></text></g></g></g><g id="g-root-tx_webinter_13zv5hh1cwigw4-stroke" data-item-order="0" transform="translate(674, 410)"></g><g id="g-root-ic_page_1q87m9x1cwifwu-fill" data-item-order="0" transform="translate(602, 416)"></g><g id="g-root-ic_page_1q87m9x1cwifwu-stroke" data-item-order="0" transform="translate(602, 416)"><g id="ic_page_1q87m9x1cwifwu-stroke" fill="none" stroke-linecap="round" stroke-linejoin="round" stroke-miterlimit="4" stroke="#484848" stroke-width="2" stroke-opacity="1"><g><path d="M 53 21L 54 21C 55.652313 21.010906 56.989094 22.347685 57 24L 57 50C 56.989094 51.652313 55.652313 52.989094 54 53L 14 53C 12.347685 52.989094 11.010906 51.652313 11 50L 11 24C 11.010906 22.347685 12.347685 21.010906 14 21L 15 21M 24 57L 44 57M 34 53L 34 57M 19 41L 19 13C 19 11.895431 19.895432 11 21 11L 47 11C 48.104568 11 49 11.895431 49 13L 49 41M 24 25L 30 25C 30 25 31 25 31 26L 31 31C 31 31 31 32 30 32L 24 32C 24 32 23 32 23 31L 23 26C 23 26 23 25 24 25M 35.200001 31L 45 31M 35.200001 25L 45 25M 23 37L 45 37M 11 47L 57 47M 19 20L 49 20M 23.5 15C 23.776142 15 24 15.223858 24 15.5C 24 15.776142 23.776142 16 23.5 16C 23.223858 16 23 15.776142 23 15.5C 23 15.223858 23.223858 15 23.5 15M 28.5 15C 28.776142 15 29 15.223858 29 15.5C 29 15.776142 28.776142 16 28.5 16C 28.223858 16 28 15.776142 28 15.5C 28 15.223858 28.223858 15 28.5 15M 33.5 15C 33.776142 15 34 15.223858 34 15.5C 34 15.776142 33.776142 16 33.5 16C 33.223858 16 33 15.776142 33 15.5C 33 15.223858 33.223858 15 33.5 15"></path></g></g></g><g id="g-root-tx_theiniti_4jsxol1cx0s20-fill" data-item-order="0" transform="translate(79.36111450195312, 374)"><g id="tx_theiniti_4jsxol1cx0s20-fill-merged" stroke="none" fill="#484848" fill-opacity="1"><g><text style="font: 15px Roboto, sans-serif; white-space: pre;" transform="translate(208.63888549804688, 28)" font-size="15px" font-family="Roboto, sans-serif"><tspan x="-196.64" y="-0.22" dominant-baseline="ideographic">The initial data source for the </tspan><tspan x="-50.58" y="17.78" dominant-baseline="ideographic">system</tspan></text></g></g></g><g id="g-root-tx_theiniti_4jsxol1cx0s20-stroke" data-item-order="0" transform="translate(79.36111450195312, 374)"></g><g id="g-root-tx_theuserf_hte3yd1cwig3x-fill" data-item-order="0" transform="translate(674, 446)"><g id="tx_theuserf_hte3yd1cwig3x-fill-merged" stroke="none" fill="#484848" fill-opacity="1"><g><text style="font: 15px Roboto, sans-serif; white-space: pre;" transform="translate(10, 28)" font-size="15px" font-family="Roboto, sans-serif"><tspan x="2" y="-0.22" dominant-baseline="ideographic">The user-facing portal for </tspan><tspan x="2" y="17.78" dominant-baseline="ideographic">interaction</tspan></text></g></g></g><g id="g-root-tx_theuserf_hte3yd1cwig3x-stroke" data-item-order="0" transform="translate(674, 446)"></g><g id="g-root-tx_backenda_3zipx1cwjuvc-fill" data-item-order="0" transform="translate(159.1944580078125, 482)"><g id="tx_backenda_3zipx1cwjuvc-fill-merged" stroke="none" fill="#969696" fill-opacity="1"><g><text style="font: bold 20px Roboto, sans-serif; white-space: pre;" transform="translate(128.8055419921875, 22)" font-weight="bold" font-size="20px" font-family="Roboto, sans-serif"><tspan x="-116.81" y="12" dominant-baseline="ideographic">Backend API</tspan></text></g></g></g><g id="g-root-tx_backenda_3zipx1cwjuvc-stroke" data-item-order="0" transform="translate(159.1944580078125, 482)"></g><g id="g-root-ic_5_qrj0jp1cwjx1e-fill" data-item-order="0" transform="translate(302, 488)"></g><g id="g-root-ic_5_qrj0jp1cwjx1e-stroke" data-item-order="0" transform="translate(302, 488)"><g id="ic_5_qrj0jp1cwjx1e-stroke" fill="none" stroke-linecap="round" stroke-linejoin="round" stroke-miterlimit="4" stroke="#484848" stroke-width="2" stroke-opacity="1"><g><path d="M 29.799999 23.692001L 27.142 25.218L 24.098 24.018L 20.546 26.056L 20.046 29.288L 17.388 30.813999L 11.282 20.181999C 10.724598 19.204746 11.062654 17.960735 12.038 17.4L 20.897999 12.312C 21.368889 12.038937 21.929245 11.964976 22.454853 12.106516C 22.980465 12.248055 23.427908 12.593401 23.698 13.066ZM 20.296 27.672001L 27.068001 39.466M 25.612 24.619999L 32.295998 36.260002M 48.577999 38.426003L 46.237999 36.444L 46.332001 33.174L 43.214001 30.532L 40 31.16L 37.66 29.177999L 45.599998 19.824001C 46.329727 18.963303 47.618881 18.856768 48.48 19.585999L 56.279999 26.186001C 56.693802 26.53614 56.951408 27.036442 56.996052 27.57666C 57.040695 28.11688 56.868713 28.652683 56.518002 29.066ZM 41.608002 30.846001L 36.246002 37.174M 46.285999 34.809998L 42.046001 39.812M 31.472 45.549999C 31.472 46.82909 32.508911 47.866001 33.788002 47.866001C 35.067093 47.866001 36.104 46.82909 36.104 45.549999C 36.104 44.270908 35.067093 43.234001 33.788002 43.234001C 32.508911 43.234001 31.472 44.270908 31.472 45.549999M 35.753998 36.599998L 36.436001 38.841999C 36.669144 39.614788 37.461288 40.074684 38.248001 39.893997L 40.52 39.365997C 41.404137 39.166527 42.315048 39.566597 42.766357 40.352604C 43.217667 41.138611 43.103981 42.126987 42.486 42.790001L 40.896 44.504002C 40.348335 45.097649 40.348335 46.012348 40.895996 46.605999L 42.486 48.321999C 43.103981 48.985012 43.217667 49.973392 42.766357 50.759399C 42.315048 51.545403 41.404137 51.945477 40.52 51.746002L 38.248001 51.217999C 37.461288 51.037312 36.669144 51.497211 36.435997 52.27L 35.753998 54.512001C 35.492943 55.38018 34.693581 55.974537 33.786999 55.974537C 32.880417 55.974537 32.081055 55.38018 31.819998 54.511997L 31.138 52.27C 30.90572 51.497494 30.114202 51.037453 29.327999 51.217999L 27.054001 51.745998C 26.169865 51.945477 25.258953 51.545403 24.807644 50.759399C 24.356333 49.973392 24.47002 48.985012 25.088001 48.322002L 26.688 46.605999C 27.237593 46.013107 27.237593 45.096893 26.688002 44.504002L 25.088001 42.790001C 24.47002 42.126987 24.356333 41.138611 24.807644 40.352604C 25.258953 39.566597 26.169865 39.166527 27.054001 39.366001L 29.327999 39.893997C 30.114202 40.074543 30.90572 39.614502 31.137999 38.841995L 31.82 36.599998C 32.081055 35.731819 32.880417 35.137459 33.786999 35.137459C 34.693581 35.137459 35.492943 35.731819 35.753998 36.599998ZM 18.757999 20.653999C 18.757999 21.078156 19.101845 21.422001 19.526001 21.422001C 19.950155 21.422001 20.294001 21.078156 20.294001 20.653999C 20.294001 20.229847 19.950155 19.886002 19.526001 19.886002C 19.101845 19.886002 18.757999 20.229847 18.757999 20.653999M 47.327999 27.993999C 47.328003 28.418156 47.671848 28.762001 48.096001 28.762001C 48.520157 28.762001 48.864002 28.418156 48.864002 27.994001C 48.864002 27.569845 48.520157 27.226 48.096001 27.226C 47.671848 27.226 47.328003 27.569845 47.328003 27.994001"></path></g></g></g><g id="g-root-ic_2_1lu9g911cx0r29-fill" data-item-order="0" transform="translate(302, 344)"></g><g id="g-root-ic_2_1lu9g911cx0r29-stroke" data-item-order="0" transform="translate(302, 344)"><g id="ic_2_1lu9g911cx0r29-stroke" fill="none" stroke-linecap="round" stroke-linejoin="round" stroke-miterlimit="4" stroke="#484848" stroke-width="2" stroke-opacity="1"><g><path d="M 35 39L 14 39C 12.343145 39 11 37.656853 11 36L 11 14C 11 12.343145 12.343145 11 14 11L 50 11C 51.656857 11 53 12.343145 53 14L 53 33M 52.136002 11.892L 32 28L 11.866 11.892M 37 47C 37 52.522846 41.477154 57 47 57C 52.522846 57 57 52.522846 57 47C 57 41.477154 52.522846 37 47 37C 41.477154 37 37 41.477154 37 47ZM 51 47L 43 47M 47 43L 51 47L 47 51"></path></g></g></g><g id="g-root-tx_thecommu_1hdtk791cwjx1d-fill" data-item-order="0" transform="translate(44.93054962158203, 518)"><g id="tx_thecommu_1hdtk791cwjx1d-fill-merged" stroke="none" fill="#484848" fill-opacity="1"><g><text style="font: 15px Roboto, sans-serif; white-space: pre;" transform="translate(243.0694580078125, 28)" font-size="15px" font-family="Roboto, sans-serif"><tspan x="-231.07" y="-0.22" dominant-baseline="ideographic">The communication layer between </tspan><tspan x="-85.69" y="17.78" dominant-baseline="ideographic">components</tspan></text></g></g></g><g id="g-root-tx_thecommu_1hdtk791cwjx1d-stroke" data-item-order="0" transform="translate(44.93054962158203, 518)"></g><g id="g-root-tx_emailinp_hv9g1x1cx0qh3-fill" data-item-order="0" transform="translate(172.875, 338)"><g id="tx_emailinp_hv9g1x1cx0qh3-fill-merged" stroke="none" fill="#4e88e7" fill-opacity="1"><g><text style="font: bold 20px Roboto, sans-serif; white-space: pre;" transform="translate(115.125, 22)" font-weight="bold" font-size="20px" font-family="Roboto, sans-serif"><tspan x="-103.13" y="12" dominant-baseline="ideographic">Email Input</tspan></text></g></g></g><g id="g-root-tx_emailinp_hv9g1x1cx0qh3-stroke" data-item-order="0" transform="translate(172.875, 338)"></g><g id="g-root-ic_1_18k1z7p1cwla8c-fill" data-item-order="0" transform="translate(602, 560.0000610351562)"></g><g id="g-root-ic_1_18k1z7p1cwla8c-stroke" data-item-order="0" transform="translate(602, 560.0000610351562)"><g id="ic_1_18k1z7p1cwla8c-stroke" fill="none" stroke-linecap="round" stroke-linejoin="round" stroke-miterlimit="4" stroke="#484848" stroke-width="2" stroke-opacity="1"><g><path d="M 21.9 50.722C 24.020437 50.369061 25.810703 48.951202 26.639999 46.967999M 14.842 27.091999C 18.933346 27.809448 22.448338 30.41087 24.33 34.113998M 21.566 30.458L 25.152 27.768M 30 11.346C 29.961555 13.350931 29.599562 15.336494 28.928001 17.226M 26 19C 26 20.104568 26.89543 21 28 21C 29.10457 21 30 20.104568 30 19C 30 17.895432 29.10457 17 28 17C 26.89543 17 26 17.895432 26 19ZM 38 23C 38 24.104568 38.895432 25 40 25C 41.104568 25 42 24.104568 42 23C 42 21.895432 41.104568 21 40 21C 38.895432 21 38 21.895432 38 23ZM 45 31C 45 32.104568 45.895432 33 47 33C 48.104568 33 49 32.104568 49 31C 49 29.89543 48.104568 29 47 29C 45.895432 29 45 29.89543 45 31ZM 38 38C 38 39.104568 38.895432 40 40 40C 41.104568 40 42 39.104568 42 38C 42 36.895432 41.104568 36 40 36C 38.895432 36 38 36.895432 38 38ZM 25 27C 25 28.10457 25.895432 29 27 29C 28.10457 29 29 28.10457 29 27C 29 25.895432 28.10457 25 27 25C 25.895432 25 25 25.895432 25 27ZM 23 36C 23 37.104568 23.895432 38 25 38C 26.10457 38 27 37.104568 27 36C 27 34.895432 26.10457 34 25 34C 23.895432 34 23 34.895432 23 36ZM 57 34C 57.008011 31.185829 55.553005 28.569696 53.158001 27.092001C 53.293533 26.501471 53.363956 25.897869 53.368 25.292C 53.408073 21.133251 50.242878 17.643175 46.099998 17.278C 46.141312 15.640398 45.524818 14.054508 44.388306 12.874773C 43.251789 11.695037 41.690002 11.019809 40.052002 11C 37.462227 11.148269 35.151451 12.67555 34 15C 32.848549 12.67555 30.537773 11.148269 27.948 11C 26.309998 11.019809 24.748211 11.695037 23.611694 12.874773C 22.47518 14.054508 21.858686 15.640398 21.9 17.278C 17.755573 17.643291 14.589825 21.135719 14.632 25.296C 14.632763 25.901501 14.699829 26.505098 14.832 27.095999C 12.44329 28.57963 10.990566 31.192043 10.990566 34.003998C 10.990566 36.815956 12.44329 39.428368 14.832 40.911999C 14.699829 41.502899 14.632763 42.106499 14.632 42.711998C 14.594027 46.869217 17.758669 50.356941 21.9 50.722C 21.858686 52.3596 22.47518 53.945492 23.611694 55.125225C 24.748211 56.304962 26.309998 56.98019 27.948 57C 30.33633 57.057899 32.59996 55.93581 34 53.999996C 35.40004 55.93581 37.663666 57.057899 40.051998 56.999996C 41.690002 56.98019 43.251789 56.304962 44.388306 55.125225C 45.524818 53.945492 46.141312 52.3596 46.099998 50.722C 50.244423 50.356709 53.410175 46.864277 53.368 42.703999C 53.363956 42.098129 53.293533 41.49453 53.157997 40.903999C 55.551788 39.427048 57.006618 36.812752 57 34ZM 34 15L 34 38M 34 45.916L 34 54M 52.346001 21.326L 46.799999 24.102001C 45.179813 24.913155 43.276203 24.932337 41.639999 24.153999M 40 36C 40.593044 33.525269 42.525269 31.593044 45.000004 31.000002M 46.099998 50.722C 45.548 48.799999 44.605999 47.321999 43 47M 25 45C 25 46.104568 25.895432 47 27 47C 28.10457 47 29 46.104568 29 45C 29 43.895432 28.10457 43 27 43C 25.895432 43 25 43.895432 25 45ZM 39 47C 39 48.104568 39.895432 49 41 49C 42.104568 49 43 48.104568 43 47C 43 45.895432 42.104568 45 41 45C 39.895432 45 39 45.895432 39 47Z"></path></g></g></g><g id="g-root-tx_thevisib_18hjzph1cx0qh2-fill" data-item-order="0" transform="translate(359.6180419921875, 152)"><g id="tx_thevisib_18hjzph1cx0qh2-fill-merged" stroke="none" fill="#484848" fill-opacity="1"><g><text style="font: 15px Roboto, sans-serif; white-space: pre;" transform="translate(126.3819580078125, 19)" font-size="15px" font-family="Roboto, sans-serif"><tspan x="-114.38" y="8.78" dominant-baseline="ideographic">The visible outcome of the system</tspan></text></g></g></g><g id="g-root-tx_thevisib_18hjzph1cx0qh2-stroke" data-item-order="0" transform="translate(359.6180419921875, 152)"></g><g id="g-root-tx_thecorei_1uqj0qt1cwlb0j-fill" data-item-order="0" transform="translate(674, 589.9999389648438)"><g id="tx_thecorei_1uqj0qt1cwlb0j-fill-merged" stroke="none" fill="#484848" fill-opacity="1"><g><text style="font: 15px Roboto, sans-serif; white-space: pre;" transform="translate(10, 28)" font-size="15px" font-family="Roboto, sans-serif"><tspan x="2" y="-0.22" dominant-baseline="ideographic">The core intelligence driving the </tspan><tspan x="2" y="17.78" dominant-baseline="ideographic">predictions</tspan></text></g></g></g><g id="g-root-tx_thecorei_1uqj0qt1cwlb0j-stroke" data-item-order="0" transform="translate(674, 589.9999389648438)"></g><g id="g-root-tx_riskpred_1lse0zp1cx0s1x-fill" data-item-order="0" transform="translate(371.7013854980469, 104)"><g id="tx_riskpred_1lse0zp1cx0s1x-fill-merged" stroke="none" fill="#484848" fill-opacity="1"><g><text style="font: bold 30px Roboto, sans-serif; white-space: pre;" transform="translate(114.29861450195312, 28)" font-weight="bold" font-size="30px" font-family="Roboto, sans-serif"><tspan x="-102.3" y="17.56" dominant-baseline="ideographic">Risk Prediction</tspan></text></g></g></g><g id="g-root-tx_riskpred_1lse0zp1cx0s1x-stroke" data-item-order="0" transform="translate(371.7013854980469, 104)"></g><g id="g-root-tx_deeplear_mbpif91cwlb7m-fill" data-item-order="0" transform="translate(674, 554)"><g id="tx_deeplear_mbpif91cwlb7m-fill-merged" stroke="none" fill="#ba5de5" fill-opacity="1"><g><text style="font: bold 20px Roboto, sans-serif; white-space: pre;" transform="translate(10, 22)" font-weight="bold" font-size="20px" font-family="Roboto, sans-serif"><tspan x="2" y="12" dominant-baseline="ideographic">Deep Learning Models</tspan></text></g></g></g><g id="g-root-tx_deeplear_mbpif91cwlb7m-stroke" data-item-order="0" transform="translate(674, 554)"></g></g></g><path id="w7r5qt1cwmpsd" d="M65.283 12.757a.35.35 0 0 0 .584.157l5.203-5.141-6.183 3.523.396 1.461zm-2.216-11.7a.35.35 0 0 0-.522.305v3.111l3.276-1.868-2.754-1.548zm3.728 2.105l-4.25 2.421v2.445l6.391-3.644-2.141-1.222zm4.708 3.303a.35.35 0 0 0 0-.609l-1.592-.9-7.365 4.199v1.782a.35.35 0 0 0 .523.305l8.435-4.777z M44.542 2.513c0-.433.355-.783.792-.783s.792.35.792.783-.355.783-.792.783-.792-.35-.792-.783zm59.171 0c0-.433.355-.783.792-.783s.792.35.792.783-.355.783-.792.783-.792-.35-.792-.783zm-85.951 7.636h-1.27v-.487c-.276.201-.864.609-1.881.609-1.202 0-2.274-.794-2.137-2.078.118-1.106 1.153-1.584 1.848-1.727l2.17-.345c0-.539-.29-.956-1.064-1.006s-1.21.305-1.571 1.017l-1.124-.605c1.218-2.631 5.029-1.764 5.029.414v4.207zm-1.27-2.86c.006.396-.062 1.112-.819 1.59-.587.37-1.841.299-1.903-.395-.049-.555.461-.791.906-.898l1.816-.297zm72.662 2.86h-1.27v-.487c-.276.201-.864.609-1.881.609-1.202 0-2.274-.794-2.137-2.078.118-1.106 1.153-1.584 1.848-1.727l2.17-.345c0-.539-.29-.956-1.064-1.006s-1.21.305-1.571 1.017l-1.124-.605c1.218-2.631 5.029-1.764 5.029.414v4.207zm-1.27-2.86c.006.396-.062 1.112-.82 1.59-.587.37-1.841.299-1.903-.395-.049-.555.461-.791.906-.898l1.816-.297zM99.096 10.149H97.85v-8.45h1.246v4.895l2.68-2.559h1.738l-2.633 2.535 2.715 3.578h-1.556l-2.077-2.707-.867.844v1.863zm6.053-6.114h-1.255v6.113h1.255V4.035zm-59.2 0h-1.255v6.113h1.255V4.035zm5.584 6.113V1.697h1.255v2.695c.361-.346 1-.485 1.47-.485 1.452 0 2.477 1.082 2.457 2.448v3.792h-1.27v-3.68c0-.408-.214-1.339-1.315-1.339-.968 0-1.342.756-1.342 1.339v3.681h-1.255zm-4.76-4.894V4.039h.621a.45.45 0 0 0 .45-.45v-.855h1.251v1.305h1.309v1.215h-1.309v3.109c0 .293.105.664.648.664.365 0 .531-.035.736-.07v1.137s-.361.113-.857.113c-1.398 0-1.777-1.051-1.777-1.788V5.254h-1.071zM36.528 4.039h-1.394l2.191 6.106h1.125l1.234-3.918 1.238 3.918h1.129l2.188-6.106h-1.383l-1.359 3.93-1.256-3.93h-1.124l-1.242 3.957-1.348-3.957zM26.212 7.141c-.02 1.566 1.187 3.129 3.223 3.129 1.566 0 2.383-.918 2.734-1.719L31.172 8c-.315.399-.801 1.094-1.738 1.094-1.145 0-1.825-.781-1.891-1.52h4.625c.074-.284.148-.995-.03-1.559-.336-1.064-1.221-2.102-2.839-2.102s-3.088 1.152-3.088 3.227zm1.363-.75h3.348c-.055-.43-.566-1.301-1.623-1.301a1.79 1.79 0 0 0-1.725 1.301zm-8.758.75c.038 1.758 1.277 3.133 3.145 3.133 1.074 0 1.723-.477 1.961-.672v.547h1.242V1.703h-1.258v2.888c-.414-.36-1.062-.68-1.93-.68-1.91 0-3.198 1.473-3.16 3.23zm1.309-.08c0 1.119.723 1.978 1.836 1.978a1.88 1.88 0 0 0 1.94-1.904c0-1.371-1.011-1.99-1.972-1.99s-1.805.798-1.805 1.916zm76.683-.028C96.771 5.275 95.532 3.9 93.664 3.9c-1.074 0-1.723.477-1.961.672v-.547h-1.242v8.22h1.258V9.583c.414.36 1.063.68 1.93.68 1.91 0 3.198-1.473 3.16-3.23zm-1.309.08c0-1.119-.723-1.978-1.836-1.978a1.88 1.88 0 0 0-1.94 1.904c0 1.371 1.011 1.99 1.972 1.99S95.5 8.231 95.5 7.113zM106.441 10.173V4.036h1.254v.382c.361-.346 1-.485 1.47-.485 1.452 0 2.477 1.082 2.457 2.448v3.792h-1.27V6.492c0-.408-.214-1.339-1.315-1.339-.969 0-1.342.756-1.342 1.339v3.681h-1.254zm-30.383-.021V1.824h1.084l4.215 5.777V1.824h1.32v8.328h-1.094l-4.207-5.796v5.796h-1.319zM5.24 10.149H4V2.377h1.014l2.664 3.597 2.654-3.592h1.03v7.766h-1.256V4.762L7.678 8.068 5.24 4.742v5.407z" transform="translate(836, 685.9999389648438)" fill="#80808088" stroke="none"></path></svg>
